<svg xmlns="http://www.w3.org/2000/svg" width="112.9" height="38">
  <path fill="red"
        d="M9.3 21.4v8.7h2.5V7.4H8c-3.5 0-6.5 2.4-6.5 7.2 0 3.4 1.3 5.2 3.3 6.2L.6 30.1h2.9l3.8-8.7zm0-2H8c-2 0-3.8-1.2-3.8-4.8 0-3.8 1.9-5 3.8-5h1.3z"/>
  <path
    d="M36.3 28H35V14.2h-7.4v1.4c0 4.3-.2 9.2-1.6 12.6h-1v5.1h2.2v-3H34v3h2.3zM47 29l-.6-1.9c-.6.5-1.7 1.1-3.1 1.1-2 0-3-1.9-3-5.5H47v-1.4c0-5.4-1.8-7.4-4.4-7.4-3.4 0-4.8 3.8-4.8 8.9 0 5 2 7.5 5.3 7.5 1.6 0 2.9-.5 4-1.3zM21.1 14.1V21h-3.7v-6.8H15v16h2.4V23h3.7v7.2h2.4v-16zm35.1 16h2.7l-4.5-8.5 4-7.5h-2.6L52 21.5v-7.4h-2.5v16H52v-8zm8.5.2c1.5 0 2.5-.4 3.3-1.2l-.5-1.8a4 4 0 0 1-2.7 1c-2 0-3-2.3-3-6.3s1.3-6 3-6c1 0 2 .5 2.7 1l.3-2.3a5 5 0 0 0-3-.8c-3.7 0-5.6 3.2-5.6 8.2 0 5.5 2 8.2 5.5 8.2zm-32.1-2.2h-4.3c1.3-3.4 1.5-8.3 1.5-11.7v-.3h2.8zm10-12.2c1.4 0 1.8 2 1.8 4.8h-4c.1-2.9.6-4.8 2.2-4.8zm41 13h-7c.8-1.1 1.3-3.4 1.6-6.8.3-3.2.4-7.6.5-13.4h5zm2 5h1.2v-5h-1.6V7.4h-8c0 6.3-.1 11.3-.4 14.6-.3 3.3-.9 5.8-2 6.7h-.6v5h1.2l.2-3.7h9.7zm7.6-3.5c2.8 0 5-3 5-8.4s-2.2-8.2-5-8.2-4.8 3.1-4.8 8.4c0 5.5 2 8.2 4.8 8.2zm0-1.2c-1.8 0-3.4-2.1-3.4-7 0-5 1.6-7.1 3.4-7.1s3.4 2 3.4 7c0 4.9-1.5 7.1-3.4 7.1zm12-1h1.3l2.7-9.4.5-2.4h.1l-.1 2.9V30h1.4v-16h-1.7l-2.9 9.8-.5 2.7h-.1l-.5-2.7-2.8-9.8h-1.8v16h1.3V19.3l-.1-2.8.6 2.3z"/>
</svg>
